<?xml version="1.0" encoding="UTF-8"?><svg xmlns="http://www.w3.org/2000/svg" xmlns:xlink="http://www.w3.org/1999/xlink" contentScriptType="text/ecmascript" width="1440" zoomAndPan="magnify" contentStyleType="text/css" viewBox="0 0 1440 809.999993" height="809.999993" preserveAspectRatio="xMidYMid meet" version="1.0"><path fill="rgb(100%, 100%, 100%)" d="M 32.582031 356.988281 C 19.425781 356.988281 8.746094 367.660156 8.746094 380.828125 L 8.746094 429.070312 C 8.746094 442.238281 19.425781 452.910156 32.582031 452.910156 C 45.738281 452.910156 56.417969 442.238281 56.417969 429.070312 L 56.417969 380.828125 C 56.417969 367.660156 45.738281 356.988281 32.582031 356.988281 Z M 32.582031 356.988281 " fill-opacity="1" fill-rule="nonzero"/><path fill="rgb(100%, 100%, 100%)" d="M 124.746094 197.1875 C 111.589844 197.1875 100.910156 207.859375 100.910156 221.027344 L 100.910156 588.871094 C 100.910156 602.042969 111.589844 612.710938 124.746094 612.710938 C 137.902344 612.710938 148.582031 602.042969 148.582031 588.871094 L 148.582031 221.027344 C 148.582031 207.859375 137.902344 197.1875 124.746094 197.1875 Z M 124.746094 197.1875 " fill-opacity="1" fill-rule="nonzero"/><path fill="rgb(100%, 100%, 100%)" d="M 216.90625 278.890625 C 203.75 278.890625 193.070312 289.5625 193.070312 302.730469 L 193.070312 507.164062 C 193.070312 520.332031 203.75 531.003906 216.90625 531.003906 C 230.0625 531.003906 240.742188 520.332031 240.742188 507.164062 L 240.742188 302.730469 C 240.742188 289.5625 230.070312 278.890625 216.90625 278.890625 Z M 216.90625 278.890625 " fill-opacity="1" fill-rule="nonzero"/><path fill="rgb(100%, 100%, 100%)" d="M 309.085938 123.847656 C 295.929688 123.847656 285.25 134.519531 285.25 147.6875 L 285.25 662.210938 C 285.25 675.382812 295.929688 686.050781 309.085938 686.050781 C 322.242188 686.050781 332.921875 675.382812 332.921875 662.210938 L 332.921875 147.6875 C 332.921875 134.519531 322.25 123.847656 309.085938 123.847656 Z M 309.085938 123.847656 " fill-opacity="1" fill-rule="nonzero"/><path fill="rgb(100%, 100%, 100%)" d="M 401.25 341.371094 C 388.09375 341.371094 377.414062 352.042969 377.414062 365.214844 L 377.414062 444.6875 C 377.414062 457.855469 388.09375 468.527344 401.25 468.527344 C 414.410156 468.527344 425.085938 457.855469 425.085938 444.6875 L 425.085938 365.214844 C 425.085938 352.042969 414.410156 341.371094 401.25 341.371094 Z M 401.25 341.371094 " fill-opacity="1" fill-rule="nonzero"/><path fill="rgb(100%, 100%, 100%)" d="M 493.414062 201.5625 C 480.257812 201.5625 469.578125 212.234375 469.578125 225.40625 L 469.578125 584.496094 C 469.578125 597.664062 480.257812 608.335938 493.414062 608.335938 C 506.574219 608.335938 517.253906 597.664062 517.253906 584.496094 L 517.253906 225.40625 C 517.253906 212.234375 506.574219 201.5625 493.414062 201.5625 Z M 493.414062 201.5625 " fill-opacity="1" fill-rule="nonzero"/><path fill="rgb(100%, 100%, 100%)" d="M 587.453125 123.847656 C 587.40625 123.847656 587.34375 123.847656 587.296875 123.847656 C 574.203125 123.847656 563.554688 134.417969 563.460938 147.53125 L 560.035156 662.054688 C 559.9375 675.214844 570.539062 685.96875 583.710938 686.050781 C 583.761719 686.050781 583.820312 686.050781 583.871094 686.050781 C 596.964844 686.050781 607.609375 675.480469 607.707031 662.367188 L 611.132812 147.84375 C 611.230469 134.679688 600.632812 123.933594 587.453125 123.847656 Z M 587.453125 123.847656 " fill-opacity="1" fill-rule="nonzero"/><path fill="rgb(100%, 100%, 100%)" d="M 677.742188 81 C 664.582031 81 653.90625 91.671875 653.90625 104.839844 L 653.90625 705.058594 C 653.90625 718.230469 664.582031 728.898438 677.742188 728.898438 C 690.898438 728.898438 701.578125 718.230469 701.578125 705.058594 L 701.578125 104.839844 C 701.578125 91.671875 690.898438 81 677.742188 81 Z M 677.742188 81 " fill-opacity="1" fill-rule="nonzero"/><path fill="rgb(100%, 100%, 100%)" d="M 769.921875 225.675781 C 756.761719 225.675781 746.085938 236.347656 746.085938 249.519531 L 746.085938 560.382812 C 746.085938 573.550781 756.761719 584.222656 769.921875 584.222656 C 783.078125 584.222656 793.757812 573.550781 793.757812 560.382812 L 793.757812 249.519531 C 793.757812 236.347656 783.078125 225.675781 769.921875 225.675781 Z M 769.921875 225.675781 " fill-opacity="1" fill-rule="nonzero"/><path fill="rgb(100%, 100%, 100%)" d="M 862.085938 302.726562 C 848.929688 302.726562 838.25 313.398438 838.25 326.566406 L 838.25 483.335938 C 838.25 496.507812 848.929688 507.179688 862.085938 507.179688 C 875.242188 507.179688 885.921875 496.507812 885.921875 483.335938 L 885.921875 326.566406 C 885.921875 313.398438 875.242188 302.726562 862.085938 302.726562 Z M 862.085938 302.726562 " fill-opacity="1" fill-rule="nonzero"/><path fill="rgb(100%, 100%, 100%)" d="M 954.246094 150.679688 C 941.089844 150.679688 930.410156 161.347656 930.410156 174.519531 L 930.410156 635.386719 C 930.410156 648.554688 941.089844 659.226562 954.246094 659.226562 C 967.402344 659.226562 978.082031 648.554688 978.082031 635.386719 L 978.082031 174.519531 C 978.082031 161.347656 967.40625 150.679688 954.246094 150.679688 Z M 954.246094 150.679688 " fill-opacity="1" fill-rule="nonzero"/><path fill="rgb(100%, 100%, 100%)" d="M 1046.410156 238.519531 C 1033.253906 238.519531 1022.574219 249.1875 1022.574219 262.359375 L 1022.574219 547.535156 C 1022.574219 560.707031 1033.253906 571.378906 1046.410156 571.378906 C 1059.566406 571.378906 1070.246094 560.707031 1070.246094 547.535156 L 1070.246094 262.359375 C 1070.246094 249.1875 1059.566406 238.519531 1046.410156 238.519531 Z M 1046.410156 238.519531 " fill-opacity="1" fill-rule="nonzero"/><path fill="rgb(100%, 100%, 100%)" d="M 1138.574219 319.472656 C 1125.417969 319.472656 1114.738281 330.144531 1114.738281 343.3125 L 1114.738281 466.585938 C 1114.738281 479.757812 1125.417969 490.425781 1138.574219 490.425781 C 1151.734375 490.425781 1162.410156 479.757812 1162.410156 466.585938 L 1162.410156 343.3125 C 1162.410156 330.144531 1151.734375 319.472656 1138.574219 319.472656 Z M 1138.574219 319.472656 " fill-opacity="1" fill-rule="nonzero"/><path fill="rgb(100%, 100%, 100%)" d="M 1230.753906 123.847656 C 1217.597656 123.847656 1206.917969 134.519531 1206.917969 147.6875 L 1206.917969 662.210938 C 1206.917969 675.382812 1217.597656 686.050781 1230.753906 686.050781 C 1243.914062 686.050781 1254.589844 675.382812 1254.589844 662.210938 L 1254.589844 147.6875 C 1254.589844 134.519531 1243.914062 123.847656 1230.753906 123.847656 Z M 1230.753906 123.847656 " fill-opacity="1" fill-rule="nonzero"/><path fill="rgb(100%, 100%, 100%)" d="M 1322.914062 270.207031 C 1309.757812 270.207031 1299.078125 280.878906 1299.078125 294.046875 L 1299.078125 515.851562 C 1299.078125 529.019531 1309.757812 539.691406 1322.914062 539.691406 C 1336.074219 539.691406 1346.75 529.019531 1346.75 515.851562 L 1346.75 294.046875 C 1346.75 280.878906 1336.078125 270.207031 1322.914062 270.207031 Z M 1322.914062 270.207031 " fill-opacity="1" fill-rule="nonzero"/><path fill="rgb(100%, 100%, 100%)" d="M 1415.082031 363.691406 C 1401.921875 363.691406 1391.242188 374.363281 1391.242188 387.535156 L 1391.242188 422.367188 C 1391.242188 435.535156 1401.921875 446.207031 1415.082031 446.207031 C 1428.238281 446.207031 1438.917969 435.535156 1438.917969 422.367188 L 1438.917969 387.535156 C 1438.917969 374.363281 1428.238281 363.691406 1415.082031 363.691406 Z M 1415.082031 363.691406 " fill-opacity="1" fill-rule="nonzero"/></svg>